<mxfile host="app.diagrams.net" agent="Mozilla/5.0 (Macintosh; Intel Mac OS X 10_15_7) AppleWebKit/537.36 (KHTML, like Gecko) Chrome/139.0.0.0 Safari/537.36" version="28.1.2">
  <diagram name="第 1 页" id="0IGIGAe5kqP2zN-2xDF6">
    <mxGraphModel dx="1426" dy="824" grid="1" gridSize="10" guides="1" tooltips="1" connect="1" arrows="1" fold="1" page="1" pageScale="1" pageWidth="827" pageHeight="1169" math="0" shadow="0">
      <root>
        <mxCell id="0" />
        <mxCell id="1" parent="0" />
        <mxCell id="3qXbmZX9D_YXO-NYl6an-1" value="" style="rounded=0;whiteSpace=wrap;html=1;dashed=1;dashPattern=8 8;container=0;" parent="1" vertex="1">
          <mxGeometry x="1600" y="280" width="730" height="140" as="geometry" />
        </mxCell>
        <mxCell id="3qXbmZX9D_YXO-NYl6an-2" value="" style="group" parent="1" vertex="1" connectable="0">
          <mxGeometry x="960" y="410" width="790" height="170" as="geometry" />
        </mxCell>
        <mxCell id="3qXbmZX9D_YXO-NYl6an-3" value="" style="rounded=0;whiteSpace=wrap;html=1;dashed=1;dashPattern=8 8;container=0;" parent="3qXbmZX9D_YXO-NYl6an-2" vertex="1">
          <mxGeometry x="60" y="30" width="730" height="140" as="geometry" />
        </mxCell>
        <mxCell id="3qXbmZX9D_YXO-NYl6an-4" style="edgeStyle=orthogonalEdgeStyle;rounded=0;orthogonalLoop=1;jettySize=auto;html=1;entryX=0;entryY=0.5;entryDx=0;entryDy=0;" parent="3qXbmZX9D_YXO-NYl6an-2" source="3qXbmZX9D_YXO-NYl6an-5" target="3qXbmZX9D_YXO-NYl6an-6" edge="1">
          <mxGeometry relative="1" as="geometry">
            <mxPoint x="480" y="90" as="targetPoint" />
          </mxGeometry>
        </mxCell>
        <mxCell id="3qXbmZX9D_YXO-NYl6an-5" value="ai.router.router-live" style="rounded=1;whiteSpace=wrap;html=1;container=0;" parent="3qXbmZX9D_YXO-NYl6an-2" vertex="1">
          <mxGeometry x="130" y="60" width="180" height="60" as="geometry" />
        </mxCell>
        <mxCell id="3qXbmZX9D_YXO-NYl6an-6" value="ai.live.livestream-feed" style="rounded=1;whiteSpace=wrap;html=1;container=0;" parent="3qXbmZX9D_YXO-NYl6an-2" vertex="1">
          <mxGeometry x="500" y="60" width="200" height="60" as="geometry" />
        </mxCell>
        <mxCell id="3qXbmZX9D_YXO-NYl6an-7" value="直播推荐链路" style="text;html=1;align=center;verticalAlign=middle;resizable=0;points=[];autosize=1;strokeColor=none;fillColor=none;container=0;" parent="3qXbmZX9D_YXO-NYl6an-2" vertex="1">
          <mxGeometry x="360" width="100" height="30" as="geometry" />
        </mxCell>
        <mxCell id="3qXbmZX9D_YXO-NYl6an-8" value="/recommand" style="text;html=1;align=center;verticalAlign=middle;resizable=0;points=[];autosize=1;strokeColor=none;fillColor=none;" parent="3qXbmZX9D_YXO-NYl6an-2" vertex="1">
          <mxGeometry y="60" width="90" height="30" as="geometry" />
        </mxCell>
        <mxCell id="3qXbmZX9D_YXO-NYl6an-9" style="edgeStyle=orthogonalEdgeStyle;rounded=0;orthogonalLoop=1;jettySize=auto;html=1;entryX=0;entryY=0.5;entryDx=0;entryDy=0;" parent="1" source="3qXbmZX9D_YXO-NYl6an-11" target="3qXbmZX9D_YXO-NYl6an-17" edge="1">
          <mxGeometry relative="1" as="geometry" />
        </mxCell>
        <mxCell id="QDqE9SO4e1qeKLdeWHyi-1" style="edgeStyle=orthogonalEdgeStyle;rounded=0;orthogonalLoop=1;jettySize=auto;html=1;entryX=0;entryY=0.5;entryDx=0;entryDy=0;" edge="1" parent="1" source="3qXbmZX9D_YXO-NYl6an-11" target="3qXbmZX9D_YXO-NYl6an-81">
          <mxGeometry relative="1" as="geometry">
            <Array as="points">
              <mxPoint x="490" y="355" />
              <mxPoint x="490" y="110" />
            </Array>
          </mxGeometry>
        </mxCell>
        <mxCell id="QDqE9SO4e1qeKLdeWHyi-4" style="edgeStyle=orthogonalEdgeStyle;rounded=0;orthogonalLoop=1;jettySize=auto;html=1;entryX=0;entryY=0.5;entryDx=0;entryDy=0;" edge="1" parent="1" source="3qXbmZX9D_YXO-NYl6an-11" target="3qXbmZX9D_YXO-NYl6an-40">
          <mxGeometry relative="1" as="geometry">
            <Array as="points">
              <mxPoint x="490" y="355" />
              <mxPoint x="490" y="800" />
            </Array>
          </mxGeometry>
        </mxCell>
        <mxCell id="3qXbmZX9D_YXO-NYl6an-11" value="live.live.web-interface" style="rounded=1;whiteSpace=wrap;html=1;" parent="1" vertex="1">
          <mxGeometry x="310" y="330" width="150" height="50" as="geometry" />
        </mxCell>
        <mxCell id="3qXbmZX9D_YXO-NYl6an-12" style="edgeStyle=orthogonalEdgeStyle;rounded=0;orthogonalLoop=1;jettySize=auto;html=1;entryX=0;entryY=0.5;entryDx=0;entryDy=0;" parent="1" target="3qXbmZX9D_YXO-NYl6an-11" edge="1">
          <mxGeometry relative="1" as="geometry">
            <mxPoint x="90" y="355" as="sourcePoint" />
          </mxGeometry>
        </mxCell>
        <mxCell id="3qXbmZX9D_YXO-NYl6an-14" style="edgeStyle=orthogonalEdgeStyle;rounded=0;orthogonalLoop=1;jettySize=auto;html=1;entryX=0;entryY=0.5;entryDx=0;entryDy=0;" parent="1" source="3qXbmZX9D_YXO-NYl6an-17" target="3qXbmZX9D_YXO-NYl6an-22" edge="1">
          <mxGeometry relative="1" as="geometry">
            <Array as="points">
              <mxPoint x="950" y="355" />
              <mxPoint x="950" y="210" />
            </Array>
          </mxGeometry>
        </mxCell>
        <mxCell id="3qXbmZX9D_YXO-NYl6an-15" style="edgeStyle=orthogonalEdgeStyle;rounded=0;orthogonalLoop=1;jettySize=auto;html=1;entryX=0;entryY=0.5;entryDx=0;entryDy=0;" parent="1" source="3qXbmZX9D_YXO-NYl6an-17" target="3qXbmZX9D_YXO-NYl6an-5" edge="1">
          <mxGeometry relative="1" as="geometry">
            <Array as="points">
              <mxPoint x="950" y="355" />
              <mxPoint x="950" y="500" />
            </Array>
          </mxGeometry>
        </mxCell>
        <mxCell id="3qXbmZX9D_YXO-NYl6an-17" value="&lt;div style=&quot;font-family: Menlo, Monaco, &amp;quot;Courier New&amp;quot;, monospace; line-height: 18px; white-space: pre;&quot;&gt;&lt;span&gt;&lt;font style=&quot;color: light-dark(rgb(0, 0, 0), rgb(255, 255, 255));&quot;&gt;live.live.xroom-rec&lt;/font&gt;&lt;/span&gt;&lt;/div&gt;" style="rounded=1;whiteSpace=wrap;html=1;" parent="1" vertex="1">
          <mxGeometry x="700" y="327.5" width="170" height="55" as="geometry" />
        </mxCell>
        <mxCell id="3qXbmZX9D_YXO-NYl6an-18" value="&lt;div style=&quot;text-align: left;&quot;&gt;&lt;span style=&quot;background-color: transparent; font-size: 14px; text-wrap-mode: wrap;&quot;&gt;&lt;font face=&quot;ui-sans-serif, system-ui, sans-serif, Apple Color Emoji, Segoe UI Emoji, Segoe UI Symbol, Noto Color Emoji&quot;&gt;/xlive/web-interface/v1/index/getList&lt;/font&gt;&lt;/span&gt;&lt;/div&gt;" style="text;html=1;align=center;verticalAlign=middle;resizable=0;points=[];autosize=1;strokeColor=none;fillColor=none;" parent="1" vertex="1">
          <mxGeometry x="70" y="310" width="260" height="30" as="geometry" />
        </mxCell>
        <mxCell id="3qXbmZX9D_YXO-NYl6an-19" value="&lt;span style=&quot;font-family: ui-sans-serif, system-ui, sans-serif, &amp;quot;Apple Color Emoji&amp;quot;, &amp;quot;Segoe UI Emoji&amp;quot;, &amp;quot;Segoe UI Symbol&amp;quot;, &amp;quot;Noto Color Emoji&amp;quot;; font-size: 14px; text-align: left; text-wrap-mode: wrap;&quot;&gt;&lt;font style=&quot;color: light-dark(rgb(0, 0, 0), rgb(255, 255, 255));&quot;&gt;/live.xroomrec.RecPool/GetListV5&lt;/font&gt;&lt;/span&gt;" style="text;html=1;align=center;verticalAlign=middle;resizable=0;points=[];autosize=1;strokeColor=none;fillColor=none;" parent="1" vertex="1">
          <mxGeometry x="510" y="290" width="240" height="30" as="geometry" />
        </mxCell>
        <mxCell id="3qXbmZX9D_YXO-NYl6an-20" style="edgeStyle=orthogonalEdgeStyle;rounded=0;orthogonalLoop=1;jettySize=auto;html=1;entryX=0;entryY=0.5;entryDx=0;entryDy=0;" parent="1" source="3qXbmZX9D_YXO-NYl6an-22" target="3qXbmZX9D_YXO-NYl6an-24" edge="1">
          <mxGeometry relative="1" as="geometry">
            <Array as="points">
              <mxPoint x="1400" y="210" />
              <mxPoint x="1400" y="120" />
            </Array>
          </mxGeometry>
        </mxCell>
        <mxCell id="3qXbmZX9D_YXO-NYl6an-21" style="edgeStyle=orthogonalEdgeStyle;rounded=0;orthogonalLoop=1;jettySize=auto;html=1;entryX=0;entryY=0.5;entryDx=0;entryDy=0;" parent="1" source="3qXbmZX9D_YXO-NYl6an-22" target="3qXbmZX9D_YXO-NYl6an-26" edge="1">
          <mxGeometry relative="1" as="geometry">
            <Array as="points">
              <mxPoint x="1400" y="210" />
              <mxPoint x="1400" y="340" />
            </Array>
          </mxGeometry>
        </mxCell>
        <mxCell id="3qXbmZX9D_YXO-NYl6an-22" value="&lt;div style=&quot;font-family: Menlo, Monaco, &amp;quot;Courier New&amp;quot;, monospace; line-height: 18px; white-space: pre;&quot;&gt;&lt;span&gt;&lt;font style=&quot;color: light-dark(rgb(0, 0, 0), rgb(255, 255, 255));&quot;&gt;live.live.xfetter&lt;/font&gt;&lt;/span&gt;&lt;/div&gt;" style="rounded=1;whiteSpace=wrap;html=1;" parent="1" vertex="1">
          <mxGeometry x="1020" y="180" width="160" height="60" as="geometry" />
        </mxCell>
        <mxCell id="3qXbmZX9D_YXO-NYl6an-23" value="&lt;div style=&quot;font-family: Menlo, Monaco, &amp;quot;Courier New&amp;quot;, monospace; line-height: 18px; white-space-collapse: preserve;&quot;&gt;&lt;span&gt;&lt;font style=&quot;color: light-dark(rgb(0, 0, 0), rgb(255, 255, 255));&quot;&gt;/live.xfetter.Fetter/GetUserFollowingStreamingRoomsApp&lt;/font&gt;&lt;/span&gt;&lt;/div&gt;" style="text;html=1;align=center;verticalAlign=middle;resizable=0;points=[];autosize=1;strokeColor=none;fillColor=none;" parent="1" vertex="1">
          <mxGeometry x="950" y="250" width="410" height="30" as="geometry" />
        </mxCell>
        <mxCell id="3qXbmZX9D_YXO-NYl6an-24" value="&lt;div style=&quot;font-family: Menlo, Monaco, &amp;quot;Courier New&amp;quot;, monospace; font-weight: normal; font-size: 12px; line-height: 18px; white-space: pre;&quot;&gt;&lt;div style=&quot;&quot;&gt;&lt;span&gt;&lt;font style=&quot;color: light-dark(rgb(0, 0, 0), rgb(255, 255, 255));&quot;&gt;main.account.relation-service&lt;/font&gt;&lt;/span&gt;&lt;/div&gt;&lt;/div&gt;" style="rounded=1;whiteSpace=wrap;html=1;" parent="1" vertex="1">
          <mxGeometry x="1845" y="90" width="240" height="60" as="geometry" />
        </mxCell>
        <mxCell id="3qXbmZX9D_YXO-NYl6an-25" style="edgeStyle=orthogonalEdgeStyle;rounded=0;orthogonalLoop=1;jettySize=auto;html=1;entryX=0;entryY=0.5;entryDx=0;entryDy=0;" parent="1" source="3qXbmZX9D_YXO-NYl6an-26" target="3qXbmZX9D_YXO-NYl6an-27" edge="1">
          <mxGeometry relative="1" as="geometry">
            <mxPoint x="2020" y="340" as="targetPoint" />
          </mxGeometry>
        </mxCell>
        <mxCell id="3qXbmZX9D_YXO-NYl6an-26" value="ai.router.router-live" style="rounded=1;whiteSpace=wrap;html=1;container=0;" parent="1" vertex="1">
          <mxGeometry x="1670" y="310" width="180" height="60" as="geometry" />
        </mxCell>
        <mxCell id="3qXbmZX9D_YXO-NYl6an-27" value="ai.live.livestream-feed" style="rounded=1;whiteSpace=wrap;html=1;container=0;" parent="1" vertex="1">
          <mxGeometry x="2040" y="310" width="200" height="60" as="geometry" />
        </mxCell>
        <mxCell id="3qXbmZX9D_YXO-NYl6an-28" value="直播推荐链路" style="text;html=1;align=center;verticalAlign=middle;resizable=0;points=[];autosize=1;strokeColor=none;fillColor=none;container=0;" parent="1" vertex="1">
          <mxGeometry x="1900" y="250" width="100" height="30" as="geometry" />
        </mxCell>
        <mxCell id="3qXbmZX9D_YXO-NYl6an-29" value="/recommand" style="text;html=1;align=center;verticalAlign=middle;resizable=0;points=[];autosize=1;strokeColor=none;fillColor=none;" parent="1" vertex="1">
          <mxGeometry x="1460" y="310" width="90" height="30" as="geometry" />
        </mxCell>
        <mxCell id="3qXbmZX9D_YXO-NYl6an-30" value="&lt;div style=&quot;font-family: Menlo, Monaco, &amp;quot;Courier New&amp;quot;, monospace; line-height: 18px; white-space-collapse: preserve;&quot;&gt;&lt;span&gt;&lt;font style=&quot;color: light-dark(rgb(0, 0, 0), rgb(255, 255, 255));&quot;&gt;/account.service.relation.v1.Relation/Attentions&lt;/font&gt;&lt;/span&gt;&lt;/div&gt;" style="text;html=1;align=center;verticalAlign=middle;resizable=0;points=[];autosize=1;strokeColor=none;fillColor=none;" parent="1" vertex="1">
          <mxGeometry x="1440" y="90" width="370" height="30" as="geometry" />
        </mxCell>
        <mxCell id="3qXbmZX9D_YXO-NYl6an-81" value="&lt;div style=&quot;font-family: Menlo, Monaco, &amp;quot;Courier New&amp;quot;, monospace; line-height: 18px; white-space: pre;&quot;&gt;&lt;span&gt;&lt;font style=&quot;color: light-dark(rgb(0, 0, 0), rgb(255, 255, 255));&quot;&gt;live.live.xclient&lt;/font&gt;&lt;/span&gt;&lt;/div&gt;" style="rounded=1;whiteSpace=wrap;html=1;" parent="1" vertex="1">
          <mxGeometry x="705" y="80" width="160" height="60" as="geometry" />
        </mxCell>
        <mxCell id="3qXbmZX9D_YXO-NYl6an-83" value="&lt;div style=&quot;font-family: Menlo, Monaco, &amp;quot;Courier New&amp;quot;, monospace; font-weight: normal; font-size: 12px; line-height: 18px; white-space: pre;&quot;&gt;&lt;div style=&quot;&quot;&gt;&lt;span&gt;&lt;font style=&quot;color: light-dark(rgb(0, 0, 0), rgb(255, 255, 255));&quot;&gt;/live.xclient.v1.Banner/GetBanner(V2|V3ForWeb)&lt;/font&gt;&lt;/span&gt;&lt;/div&gt;&lt;/div&gt;" style="text;whiteSpace=wrap;html=1;" parent="1" vertex="1">
          <mxGeometry x="490" y="150" width="320" height="40" as="geometry" />
        </mxCell>
        <mxCell id="3qXbmZX9D_YXO-NYl6an-84" value="" style="shape=image;verticalLabelPosition=bottom;labelBackgroundColor=default;verticalAlign=top;aspect=fixed;imageAspect=0;image=data:image/png,iVBORw0KGgoAAAANSUhEUgAAAFAAAABMCAYAAAD6BTBNAAAMP2lDQ1BJQ0MgUHJvZmlsZQAASImVVwdYU8kWnluSkEBoAQSkhN4EESkBpITQAkjvohKSAKHEmBBE7GVRwbWLBWzoqoiClWZH7CyKvS8WFJR1sWBX3qSArvvK9+b75t7//nPmP2fOnblzBwCNExyRKA/VBCBfWCCODQmgJ6ek0kk9gABMAAIA0OZwJSJmdHQExGDw/vfy7obcElx1lGn9s/2/Fi0eX8IFAImGOIMn4eZDfBAAvJIrEhcAQJTxFlMKRDIMK9ARwwAhXijDWQpcKcMZCrxXbhMfy4K4FQAVNQ5HnAWA+mXI0wu5WVBDvQ9iZyFPIARAgw6xb37+JB7E6RDbQhsRxDJ9RsYPOll/08wY0uRwsoawYizyohIokIjyOFP/z3T875KfJx30YQ2rWrY4NFY2Zpi3W7mTwmVYDeJeYUZkFMTaEH8Q8OT2EKOUbGlogsIeNeJKWDBnQA9iZx4nMBxiI4iDhXmREUo+I1MQzIYYzhC0SFDAjodYH+KFfElQnNJms3hSrNIXWp8pZjGV/DmOWO5X5uuBNDeBqdR/nc1nK/Ux9eLs+CSIKRBbFgoSIyFWh9hJkhsXrrQZU5zNihy0EUtjZfFbQhzLF4YEKPSxwkxxcKzSvjRfMjhebHO2gB2pxPsLsuNDFfnBWrkcefxwLNhlvpCZMKjDlyRHDI6Fxw8MUowd6+YLE+KUOh9EBQGxir44RZQXrbTHzfl5ITLeHGJXSWGcsi+eWAAnpEIfzxQVRMcr4sSLczhh0Yp48GUgArBAIKADKawZYBLIAYL23oZe+KRoCQYcIAZZgA8clcxgjyR5ixBe40Ax+BMiPpAM9QuQt/JBIeS/DrGKqyPIlLcWynvkgqcQ54NwkAefpfJewiFvieAJZAT/8M6BlQvjzYNV1v7v+UH2O8OETISSkQ56pGsMWhKDiIHEUGIw0Q43xH1xbzwCXv1hdcEZuOfgOL7bE54SOgiPCNcJnYTbEwVzxT9FORZ0Qv1gZS4yfswFbg013fAA3AeqQ2VcDzcEjrgr9MPE/aBnN8iylHHLskL/SftvI/jhbSjtyM5klDyM7E+2/bmnur2625CKLNc/5kcRa8ZQvllDLT/7Z/2QfR68h/9siS3EDmBnsZPYeewI1gDo2HGsEWvDjsrw0Ox6Ip9dg95i5fHkQh3BP/wNvllZJiXONc49zl8UbQX8Itk3GrAmiaaKBVnZBXQm3BH4dLaQ6zSC7uLs4gaAbH9RfL7exMj3DUSv7Ts37w8AfI4PDAwc/s6FHQdgnwdc/k3fOVsG3DpUATjXxJWKCxUcLrsQ4FdCA640A7h/WQBbOB4X4A68gT8IAmEgCsSDFDABRp8N57kYTAHTwRxQAsrAMrAarAebwFawE+wB+0EDOAJOgjPgIrgMroO7cPZ0gRegD7wDnxEEISFUhIYYIKaIFeKAuCAMxBcJQiKQWCQFSUeyECEiRaYj85AyZAWyHtmCVCP7kCbkJHIe6UBuIw+RHuQ18gnFUDVUBzVGrdGRKANlouFoPDoezUIno8XofHQJuhatQnej9ehJ9CJ6He1EX6D9GMBUMT3MDHPEGBgLi8JSsUxMjM3ESrFyrAqrxZrhe76KdWK92EeciNNwOu4IZ3AonoBz8cn4THwxvh7fidfjrfhV/CHeh38jUAlGBAeCF4FNSCZkEaYQSgjlhO2EQ4TTcC11Ed4RiUQ9og3RA67FFGIOcRpxMXEDsY54gthBfEzsJ5FIBiQHkg8pisQhFZBKSOtIu0nHSVdIXaQPKqoqpiouKsEqqSpClbkq5Sq7VI6pXFF5pvKZrEm2InuRo8g88lTyUvI2cjP5ErmL/JmiRbGh+FDiKTmUOZS1lFrKaco9yhtVVVVzVU/VGFWB6mzVtap7Vc+pPlT9qKatZq/GUktTk6otUduhdkLtttobKpVqTfWnplILqEuo1dRT1AfUD+o0dSd1tjpPfZZ6hXq9+hX1lxpkDSsNpsYEjWKNco0DGpc0ejXJmtaaLE2O5kzNCs0mzZua/Vo0rVFaUVr5Wou1dmmd1+rWJmlbawdp87Tna2/VPqX9mIbRLGgsGpc2j7aNdprWpUPUsdFh6+TolOns0WnX6dPV1nXVTdQt0q3QParbqYfpWeux9fL0lurt17uh92mY8TDmMP6wRcNqh10Z9l5/uL6/Pl+/VL9O/7r+JwO6QZBBrsFygwaD+4a4ob1hjOEUw42Gpw17h+sM9x7OHV46fP/wO0aokb1RrNE0o61GbUb9xibGIcYi43XGp4x7TfRM/E1yTFaZHDPpMaWZ+poKTFeZHjd9TtelM+l59LX0VnqfmZFZqJnUbItZu9lncxvzBPO55nXm9y0oFgyLTItVFi0WfZamlmMtp1vWWN6xIlsxrLKt1lidtXpvbWOdZL3AusG620bfhm1TbFNjc8+WautnO9m2yvaaHdGOYZdrt8Husj1q72afbV9hf8kBdXB3EDhscOgYQRjhOUI4omrETUc1R6ZjoWON40MnPacIp7lODU4vR1qOTB25fOTZkd+c3ZzznLc53x2lPSps1NxRzaNeu9i7cF0qXK6Npo4OHj1rdOPoV64OrnzXja633GhuY90WuLW4fXX3cBe717r3eFh6pHtUetxk6DCiGYsZ5zwJngGeszyPeH70cvcq8Nrv9Ze3o3eu9y7v7jE2Y/hjto157GPuw/HZ4tPpS/dN993s2+ln5sfxq/J75G/hz/Pf7v+MacfMYe5mvgxwDhAHHAp4z/JizWCdCMQCQwJLA9uDtIMSgtYHPQg2D84KrgnuC3ELmRZyIpQQGh66PPQm25jNZVez+8I8wmaEtYarhceFrw9/FGEfIY5oHouODRu7cuy9SKtIYWRDFIhiR62Muh9tEz05+nAMMSY6piLmaeyo2OmxZ+NocRPjdsW9iw+IXxp/N8E2QZrQkqiRmJZYnfg+KTBpRVJn8sjkGckXUwxTBCmNqaTUxNTtqf3jgsatHteV5pZWknZjvM34ovHnJxhOyJtwdKLGRM7EA+mE9KT0XelfOFGcKk5/BjujMqOPy+Ku4b7g+fNW8Xr4PvwV/GeZPpkrMruzfLJWZvVk+2WXZ/cKWIL1glc5oTmbct7nRuXuyB3IS8qry1fJT89vEmoLc4Wtk0wmFU3qEDmISkSdk70mr57cJw4Xb5cgkvGSxgId+CPfJrWV/iJ9WOhbWFH4YUrilANFWkXCorap9lMXTX1WHFz82zR8Gnday3Sz6XOmP5zBnLFlJjIzY2bLLItZ82d1zQ6ZvXMOZU7unN/nOs9dMfftvKR5zfON58+e//iXkF9qStRLxCU3F3gv2LQQXyhY2L5o9KJ1i76V8kovlDmXlZd9WcxdfOHXUb+u/XVgSeaS9qXuSzcuIy4TLrux3G/5zhVaK4pXPF45dmX9Kvqq0lVvV09cfb7ctXzTGsoa6ZrOtRFrG9dZrlu27sv67PXXKwIq6iqNKhdVvt/A23Blo//G2k3Gm8o2fdos2HxrS8iW+irrqvKtxK2FW59uS9x29jfGb9XbDbeXbf+6Q7ijc2fsztZqj+rqXUa7ltagNdKant1puy/vCdzTWOtYu6VOr65sL9gr3ft8X/q+G/vD97ccYByoPWh1sPIQ7VBpPVI/tb6vIbuhszGlsaMprKml2bv50GGnwzuOmB2pOKp7dOkxyrH5xwaOFx/vPyE60Xsy6+Tjloktd08ln7rWGtPafjr89LkzwWdOnWWePX7O59yR817nmy4wLjRcdL9Y3+bWduh3t98Ptbu311/yuNR42fNyc8eYjmNX/K6cvBp49cw19rWL1yOvd9xIuHHrZtrNzlu8W923826/ulN45/Pd2fcI90rva94vf2D0oOoPuz/qOt07jz4MfNj2KO7R3cfcxy+eSJ586Zr/lPq0/Jnps+pul+4jPcE9l5+Pe971QvTic2/Jn1p/Vr60fXnwL/+/2vqS+7peiV8NvF78xuDNjreub1v6o/sfvMt/9/l96QeDDzs/Mj6e/ZT06dnnKV9IX9Z+tfva/C38272B/IEBEUfMkf8KYLCimZkAvN4BADUFABo8n1HGKc5/8oIozqxyBP4TVpwR5cUdgFr4/x7TC/9ubgKwdxs8fkF9jTQAoqkAxHsCdPTooTp4VpOfK2WFCM8BmyO/ZuRngH9TFGfOH+L++Q5kqq7g5/u/APEjfEKALSgGAAAAbGVYSWZNTQAqAAAACAAEARoABQAAAAEAAAA+ARsABQAAAAEAAABGASgAAwAAAAEAAgAAh2kABAAAAAEAAABOAAAAAAAAAJAAAAABAAAAkAAAAAEAAqACAAQAAAABAAAAUKADAAQAAAABAAAATAAAAAD+2t/KAAAACXBIWXMAABYlAAAWJQFJUiTwAAAiqElEQVR4AbVcCZBcV3W9vXdPz64ZjXZrNV5lYdkm2MYQG2IcUxiCgbAESKgYMIQCJxUoKimoSiXBBBcB4wABwpICG4PBFJjFkewYCS9IliVZli3J1mLty2g0W/f09JZz7n3v/989PSPJkDfz/9vuve/e8+5b/uvfHVu5enVdXKhLzCcRR9ORYk021gUCWtTNLKdZ7kvNN+ozRUqjgpHqqRUzS2qkJ20ylBZljaZDirNP/aHktGr5/0c2ITobyfFWqs1c1ih+ap/MzP371bJtf52FpEaVI4zTVkRooslGetruPDBaEU1HmZmeqe73oW3mjebPps0oX1OaYhp7u4ngpWUB4B9IQScnFjN5sVi8UbIW41avqx1G1qrtVmVnaJyX7bDykohbHXWqUM3aDyWSqhFZ5jxvSOdTjfSROZAE07NNV0fAqJwHLpfLSVdnpzBOp1KSxBWVGlUumUQdkYwSUI1Ge1hioQUd265UKloflc0CQlUpV6SM+kKhICMjo4iL2pzXWYE16S/p3gTgmcsww2PS0d4uSxYvllddfZWsvOhCWbhggbS15SQF4OL0wmajpzQBgtPSNDFNQWo6xOl5vOoyOTkpExMTsv/gQdm6dZv8Zv2jsmffizI6Oia1Wg00taZGziwbW7n6Mtc6PGlankYL40Alm83K225+i9x4w+tl/vx5kkgk1Ju0R6k1gt6nF+opEDfKJ+/MgULPkAdkpPQcOmKQr1arcvjwEfnVg2vl7nt/JONjYwp0VN2ZWzDKswYwHo/LJSsvlr+/7eOyYvkyGz4AdObGPByno4qqH7Has2t8OhkNxNNmOLzrmA9T6ZTs2bNXPnfHF+XJTU9JFd7ow8wtma6JgXnzPjNzb4Zi6GVvvumN8pl/+JT0zerTHmOPhhS+6VZxKyoHmHos0pBVpwHwDr1qiPVCGWhQrTTqT+TRAspoJbuVDmEZtVZvRHtdXZ1y3bWvkVKpJM88+5zaRcqZpVptsAo7U8IWmlIctgTvto9+ROiFqnsTzZln2ctQACAQsOrJ41I5ekgqx49I9cQxqZ06KfUChlR5Uuli6bTE2vKS6OqRRN+AJPvnSGLOfEn09EkMutQhyiagl7CtdTClU2n58AdvQb/V5N77fqJD/Ey65jSLiKFMsFatukT+5kMfUIV1ATlztAwsP8MCtBom9OrQCZnYskFKTz0hlcP7pVYYJ55Nwdq3QlTiPxazFZ+AphYsluylr5TMRS+XePcsiQPosGejvE1iW2RpUzwek4/ceou8sHu3/G7jphZUzUXw4pWrL1e1p+jueoaC8/k2+c+7vixLly5xpc2CZsrDEK5wkFObLElx46NSXL9GJvftkVqxoF5I/1HBtJnOaUipUBZRN8ZBYI+y1FXEc22SWrJc2q75E8ldcrnE0hlH2sAVsM+U4Nx46NBh+ctbbpXh4WFrYwYGzIHzP9O63hrncH3n298uN1z/umBuaE0/Tal6XEkKm5+Q4W/fJeNrfi6VE8elVi5DOUPAhp9N6ppWgCCP1U1BoQMfHNGqSYN9XvXYEZn43XopPbtVEt29Eu+ZpaPFkD9zIEnZ090tZej35FNb1OaZuKfxQGOh93ViU/yNr9wlCxbMx75uJlGNltpwrEt5/1459f2vyeQuTM5cHDhheWS8JymrL5/aBid8eoavMdgb2zMRRsF5MX3ehdL9rg9Iau5CIzwL3WsYMUeOHJX3/fWHZPgUvHCGMOOsyz3dOYsWyvx5c6G8V38Gaa6Km1IuAKNrH5Djn/2UlLZvk3ql6jyYUBAC3Dm0ibReHLtMuzJHwzrb5Bqf8ZLSUg0x2wV9DR01sW2zHP+XT8rYw7+At2MxolwvU/WkDgymi6XtTscZGJgt52Kb5qmi9dF0i0UkBIqCrr7ylZJIJtE+VD2dNEimsbXxMRn6/jcw161VBdj55GdMM6g0RbFTYLKmKJztWUAZ6MMFISzW2TBGkMnGmw/0UPAHYzsm1bFROYlpY3Lfbul863slgYUH4xoMns/HlBFNiyTiCbnmVVfJBi4makBjvW+1BYC+CjZgi7Hy4oshuzVzSMkUAcaz59CgDH7l8zK5A17nGlZ2gmj7DWWLIa0wKmiQj7ihFS13LSguvFEGqEiIesUPZRYcf1QIaWMJeOGvsU06LD23fFznR+uogNELmBLz0VR1pJgptVbQNIRDMjaSzWRkAR7TFIBpBPhiGlYeOikn7vxXTORPGxj0Is+shrk8I1NNASEJ+Q2cMPayKUzpvSxWkJ5/ji+oChImk5y0vvjMFhm863apDg8pr5YHDUxNcCTNnTtXn/Wn1oYlTQCGFUxxAcm3tSEFJaYJagQ3wxi2g1+9Q0o7n1XqwDByOyNptA5NxnpppSuzdAAis5CrvDp9WJp8nsZkeFmoV3rHhzSDTT2gAYilndt1dFSx50SF1s90owMRAzoTJLQMEQBD7/OU/lTF51vGMKhaLcvgPd+S0ranjMSDw2Y1bbGCAYqwiOVeapCwMhIxaOzokPbgqSyXN7mkJ53jM2ZXxjmT5TEsaFvk1A++pQuN0ivd1BupU6kkTpbaph2+5HIATgWPJXy84fPvtAFKcREYwRxTWPOAznmhYfQIqMGORqSGa57G+MsPQfMu9Rb1NpRHYgWZvLSKQOBSeUEe5V4kiKK8qoOnU6+MydjaX8rY+od0W+VX+Ck2goeHwumGp5spVB7AqRVsM5F0R1TRaoc11MRorEvp0EEZ+eF/gxhA0zi1MhqFxvpah4GCYICTlbWOmwsEn7f5h7SunMirK2jel4NH82CkXiRl5GOm6SIsZFB3wWqdjMvwj74r5cGjqLJ2jSB6t11DEjsQb1MrStROL4JPIaoNjfNKaBsEpSal6qT8ZN+v5IKJEekkSdCC0ZPF4aL8BMSUCYWxIxQksNTr2CtSn0xW4tmcxDI55auXi/AWPPbVJrRdPydpe3h+1UZUNG6haEubKgqTr9LdQemoDP38W9L/3r8DyDis0EpPQSMtbQ8PRB4PAS3C9NsY8NOFtWWgQGw8AOY1ddk19IKsH98uk+f3yjWbT0idxvig2xSXYTGHWIAwpVmg4hxmNfR0/tKrpfePr5e2pcsNQD994EirXi/hke2AVAYflvLRR7BRx0KAvRq733ZHVNhLpe6+AYt9R7JYW69nQLNBqiNbcMpzKUo52qzO20mBns9JmxI1AugbBRnB4yRKoZw6TDg9j1dNJrG7f3DvGjxhVGTrhb1y0fZB6eXjrcowgAJxHi8fR9Sow8u6X3uj9L3+JskuWMSWddjVOOdFghoVw1HWrEsls+gvZPLIgzL54n0AcgQsPNJy9GhU28WtUYIJU0BY55E58kOp5i+WZJJdYSOO7uKrQxUodarEpBkckp0+hVUXiG4f3CE7TuzUzz3Gc3FZ94oBuXHdYYlDoBpAJTRhOZVLrQLXqEty7gJZ9Lf/KPnl56EaTw5gGC7UZffhiuw6VJHBUfQcQldbXJbOjcu581PSk49LMjNbsovfLenZ10jh2c9JbWSHoRZtD+loVgW5G9cwHosxxEa2S3UUhwbwwliCQ7VVmAqcp2r0QF/qIAiyPgEAONzKlUlZd2A9SikYs1alJs8v65SDW0/IolNlLQ1hY386YyiHGTyrZi5ZLYsBXrq3n9bIwZNVuXd9UbbtLcvoBB4Hqx4BMmG0IptLx+S8hUl5y5U5gInR0bZI8qtul+KOL+BJYy2oUpGGkA2VoIggWB+iErpwzo0d/6VUOy7G4xsXLiyGQSeDpUEGMzQgDC0ANI7AxUNaZa2g+44XTsjuoT1weAwdehX+K7g9urpf5v16PxZklJMv4t6WRCmUS114iSz51D9LKt8hFVSsf6Yk33xwXAqY5ugEHL2xuB9G9GhLFybrsnHXpGzePSlvu7pNbrwiJ7lUXnLnf1KKtTKOyR5Fo15/nwqKqFGD/aojHvViYzukOnFC4nkcmiB/NmE6n3WdEIEfren8h+H7zPHnpMiVkWNBtTDN9i3pkG3n5I2OuqKe/qd/9F4YV+volIUf/STAa8e6EpP7Hy/KnT8bkyLA4bCqAj22QxCtb7jXJKhWxgZx6i53/6Yg3wDopQp1TEr2XHzUkB2gIhoCJ9IEafzlkozUPLRbxWn48CbM9dY2mpghKFNQ3wRgpDLiPUZNA2oyAeC2HMOcEbTC1tgwFCrXZMPq2YLNhvsjCJYmDY+Z+t79fmnnYoHhsmbLhNz9CFZT1ilATXzk9RepVJZ5KOnXbi7KPevGde6Mp/slc+6HQWUmoXr60GwbzI6delyq5Qk0wu1KC+YINFHBEQAbKZpFMF+D8JOFITk4chD9aUu8N5BCaf7J3oxsWdqu86KiSmWcNZnFy2TetTdo9uBgVb6zFh8coc57F8l4BXlKRIG/WG709uRCj/3pY0V57gAmEPAley6XRO9qaOJtQYzy4KKSoWsyZwGAJgp7pFYahBz6e1OIiLMaX+C7q4meCoQkrDTF9cPo0SNSrBTVUjNMk5ZX0ro8ccWADGbdPMixiFDDKxbc48WxSabwXzxZlPEJDEcCBp0bQbJ8MIxJg8vADWMO5QoqfrAeQ5DAYP5KDVwHAr7q0WiBKtF0ozwfdBgXD2KRBG+0Qgmml+U8MErg0i5iG3qhZ6rY0B4eOWLGspQNsccQa8/BGK7SxWxCNpzfpVYrLzsVm+KOVZehviZjAO7hrRM6t6kIyFKv045ie9Zh5m0U4/NsimnSuDTip14oyZ4jWP1RmOhaiUe1TtOaRD5ETXT8AcisQwfUC3sxzdC7be421qgQ0jUKBIBBia+ZGkMzGkEPPIEVWB/xqK2aSn6mda1U3hhAfPaCWXKUH44hTRdL4fPc7KLFoIzpKjo4gqcLAq6ylU1JUeJiA07BQzWb82nGnPDZL0yXK/D6nZPAACMnjQ+T2perStSKfBo47+ncRz2jVrMceXpwCR928amHf2D0rE5CGNFkFyJzIEsiNZ4CMQWxVyoQPlIasWdeLQQHNeQ/Yt2buoZL8ML/xea6gjyNTC9crMOXj9c7D+GRBUEBoGz8EWcD05Q3sMxY7QOlMlmk1z/Hw89zd0EmhzQ9KZ5fqlJxY5Z33iwCj4JlJcGdHRubHIQe7FjuDzwXU2CaJkQAdI00EHpGU5weWCgXVJwZwDsNNybGluTWoC4vLumUPb14hQ3gJ/EqiKkSk+PDUBAtB4DBcAUMzDYfog5lQRsQrLIp37VheSsn5dA4Otg978cyvVDI2+NiazwsbrCTlQAQBxZ1OIm1HCXwsiJlWoTOihQ1JlXRkFGNhXVlHJ6ap7EZGqR3JpjT2IxEGuzrL+vHXg1KBcddeBCBnAA8suifcmvKe5wOUwgjuOFlIAeAo44t6/7RWVCP4YkEQZdCU8nVICIxgxvOlnF3nC7xc6DAFi0mg2dqoNaMAzAEaiqJk2emaQMcKSrSkDIwXBmLfGD6yKIO2bw4LxW+PmbjSXKZuA43ZcdN5THG5csstrYpkpfVk8ZA0zzLgXgWmCWcGfXyqKqgqnjTNKPFKizIBglMFwpeYJ0jniGCbADoW2gidMZGS6l4vO4OTmkhgjeGcyHTpp03si4JDOUnL5stQ4cPOM8TOWd2Ep7saMBj8x9lmTwCY+BYHDoFnmSUxkDT1lDArczc3qSk+BSGwlrxmHWwKsibD2Yr+cKAMldQq0EAhhf/GBrpQo5oatohbGBESSkQi0EMj88wUI1lNXXyGbSogCLPYj/Ux3raZF1uUF/p4GK0aklK0hQDGgJi8iATGVVa5aDYjSbK9MOZXPoHGpax6QpW4UuXpQz0agmfB++w4QvRpqBqoznStwpcrqqCPSoJHA25lH8aHtZOC6AtXyaChJTBKxvPInZuro2ZdDM9bMkDyXJKeXJ5Rl44vEvFLhlIygWLUgY2pYFNQWIbSPuhyt2YBrVaiYxOgWadQinzZiXkCsiPo8fK4/uwnzsIu013J8HkuHurVZgmlet51dVAN3uVJYShQQ4z0wOoLVvzNI62cFJuT+R1P6i2odzqLFbQ1CtIb8ZpDFeq5TPy0ImnPPQ4TcnDg0wfBU9ZQKcyTXl6IJ+/SUaQfazqODqWU1YuQx/Cp27HHgehfxIxyxvtBx0FMDDSJMqwwyjHO7RAizwN6WYILQE0n4lwUQNc7LkebBFqODTwIaqcpkmHSqdioCPLNhzaJIdOHlLW1csyctUFGR1+CrwDRNPgCmMaDHlaj3LnfSzjyrt0TlKuXZnTziiXTuGkeg22SE2ndKqY15gxCyKFkFWeqEolPRulgARVXn/l0hVbU1NuLQA0wQ0CwKZHjdgF97R146DAepFGeI9hi/Q5BhqrKjB2F+nGKwX59mPf1feqOeHf9qYuHJByKAdkQZqeZeUOTJ83ySp+dndCPv3nPdKZo841Gd71PYkVDzloWNZ48dUS3do4Cg8i5+pCEaBn+3S7ZTRgP4PQAkDjorfxuVCtcA3yxLYn3y0d+LMlH76KxmmNgkdyekiTscwz8KB1y5EtsmbbWpXYiQOHT7+jRy5anMa0QCKTQ7ApxDqH8sKLNBXQLuhPyD+9q1fm93LpFbwUuVEmD/0KnzOhQ8wHAphYT5GumDkWWUCSi9FopUuSbT2YR02er2Zs1CF3tK4JQHiWq6XSFcwLNEJZAWgCQ6Mtk5cFbQtwdmbbftJTOTJ6XhXBDEe6LwQRZVK/bz76TfntzsdgaF1mdyXks+/tlbe/uh17OXSa4wnYKAYZtsGYutxwWU6+dEufLMfwpcztB3fIc5vukEwMm3xYxON/b66PwRaoogltx1rh8J3IL5cUbIvxkz5dgEJOzVJAixCZLEKGFnRQiu8Qx/HCUVaW9C6W7fu249UFUpoSprJLM6K4oGUUePGMwXfnw1/GEX5BXnvxdZKBFh98fafcdEVeHnmmKL99dgKnK/hiDE6pKSoDYBf2JeWPzsvKqy9qkyXYRypIkL9p72Z56LHPy3v6hvUdZ/8SqNMEzaJB1zylWTlK0Xn1GmORsVE4x/wVkkri9AMAUlmvLjIzhgiAETpy+0uTFBjHTh9H5wCwv6tfOvE3Wh1Fe96JvcqOV8WFZfQgvtJGa2Kwvhwvy50P3Sl7ju2RN11+k/R1zpK5PXid+Jq8vONVeQVvuGiPfJ25hH6gxEMDDjeOk9GJUXlwy//IfRu/L59YWpQkkOAUQ0SsFTNB1XA31hBCTjteswq872SpS9o68JFpCh/o04WJaiRQdwtess/zwwSlNYaALqzXlJdHAzKpjHS1d8nyrmXy2ODj0tbFt7cQnGzKCJpxCUYcFtb/MIPDDB2dyqXkge0PyLqd6+QNl7xBrrvoWunp6IYRCcnCSzMp1zkOFD6njhRG5YldvwNwP5aDY4fkDXNrsjCNJx4+x0E/tsWgsc84wxQ81EXtHDpWlMqsqyXb1iVxAMgPlXQI+4lUpU1/gwf6VloRWZ2BAh+E5alEUjrynbJs9lJ8NvysTFRKEse7JtSKEFnj9BIUaZmTgYyHEEQwFo+FMDqJ8TtWGZXvPP4duX/T/bJi9go5d84KeOM86chxY4uXgSbG5ejwUXnh2G7ZcWSHDBYGJZVNypKuuLy5v8J3CnT4UmwIoYdJNVHjtI56aFFMJosVOVmeJdn+l0k62wEZfJFArWgAg/TTeWHrIezZyaWXFfBtBS4k+Wyb9Hb1ygW958njJ56QbLd7h8Xr7PipJ5GlCFUCOQ+wFsALqS6kSqYtIxPVomw+vFk27t+om3Vd6cHDuTeO0xy+6JNAZ2XyaV2f/mygjIcvdoR98YdbrSD4BoMCJKifu7j4HD8M7+u7WrrbeyWZ5gLCFRwwR+yg7jOFAMCpdFCmQR8IhnDOMxzGvR29srh/iewafF4/aCIAGiItmkzeAZNrgI+B2ssuz7cBOKHHanGpwSs5FJPpBOwEAbdF5KYeVEfnJ6QxVC/rLMul7aAHH+s5vVhg7IRrykaDL6IepD+FoTtUG5C2/uUYvvgGFBYQW4E5bXhZJnGmu5tkmklMgD6sR6o4hOOYvNLYa7W3dchA72y5dD5eiSjgtQy3rTFyM4AgeFPCmD5nRhgyzOAfwMXxfgqngxhWXcZxzIEJXHHsujWPenpge7Iu754L8ICGYuoR5rxF4ZH5y4a0AwR17LzCaEWOnUQbi14l7V0Dks5g+Cb5hhbhwOXI2ev01LAASQ2eQKl9YXOMfSBeHNIDRtBTEf5xOCUxD2bTWR3G8/vmyYW9F0hhqGAfyDjQtGEqTLG8qSJqnSplekEiDOK7gBCsMedFDkkdlgDMA8t3+uitfMq9bhY+X8ab+uRlp1Iv6xU2xoB22JQLXheSTWLVPbx/TCZ7L5WOvkWSzfdKIo1X6bDDMABDuOhA/svcXlZzrB4YaQv1arIqwG/r6NOI50KVeiFWqjR6rCMHL+wZkPPnni/n4D2V4ikcieMpQQ1yPARKDaCNbAhXUK8FvkmtQCUIedERuKq6oUmwqNqibFXe2Ic24GV+z6dNoS4EjRleFmxO46JRlUP7RmU8t0LyC14u+Y5+eB8+w07A+7gt8J1BXvzzU8hJYGBqBlp7qRorgK4EUdgobeXX4/l1ec/KmH+c0FMYxhks+z2YC+fMGpDLFl0m3fgzEOkdlEopjBBrEoaj3IaFq9N6dgxaR5F6JMqsTRbaxYifNL9rXl0yeJnJ5JPZhYg4X6RDmeUgLpcMvNH6bMktwdDtxqeEbfhKWCqHeZcvJREK154TwJ8LKAIDh2AgNpqIAAjmaEDDI6P4jQF+ITASaGACjfGLKGn85kEOK3JfN14q6p8nVy+5WnoAIodzFSc26jUeRI0x//F5LAhM26W9DBW8t5otgNHZRLZVHRW5IMWPHU8TVCRuEMqOKI6W5cCeERmp9Ulqxeuko3ee5Nr7MXTbAB42nLr3849wJpt8/ImA4ZHhSHtNGIEG6x7D1ApqXixOyIEDh6ZUUzjnQvPCjHRwQcFQXjB7gVy5+CpA2CWFk+NSxj7LM5tNuGtTNE4bDjrXhklYpk6Lmy/viFflPVg44nwSaVZ3iv4UzpW/LqdOwIa9ozJa75P0iuulc9ZCPHXM1oUjgd0Ej750Dm6SwTYO4/ty/E0FGzGmW/OdM7AZFcRIMA0LOWlv2bZNs+F6avR+RfYgdrZ1ypzeObJoYKFcs+wamZeeC0/E21MjfNUIInWIGG4KDltw6Hivc5iipjHwUOhP+2oyS0+HWKcKGhGZvECWWGNuyI7J4QOY8zJLJPOyG6WrD+B1zsGm2T91YOhiJHEnSpEqCnezNSZbn36GikdbQwORtpFrehKJVDKJ3l7/6GPyzrfdrB7XxKsLSpIKYEEhCF35LvUO3eqgbOv+p2XH0A6pTJYlnc9KEk8PuihArgfP1HaGIwrymrbcAgzb1+It9io++1Dv43hudkPoS5Ur2E6NDJXk5IkCXplLSrXvFdK+cJVuV7JYNDIePA5dLhwAT60mepHABWT9YzjdZnmwx4wQuGSwkZ5aZRrtxU+D8Nct5s+b1wC+9gtICFYS4NWxN+Mf7aK3pTA/8uBh4OiAbDywUcZOjWLOSUq6LS1JPAPb6goOgoHgvVBXTLXImovjSP9982qS49Eay3npPo98bAwRQnUSz8knSzJ0cgK/fVCVUrJPkkuvhNctwpDtx3Zllj2uYeFLJPiCOX3Hz3tOiIlSXY4eOyY7dj4PusY6I2GZ6R0BsBWhyOjYuPx67UNyy1+9D3uiqgKkQkBuWwnktCe9aJ0hda/IJ5YsXiKf1dkru4/ulu3HtstYcRSHCACRP8qD1z8Iqt+qKIjsDCoHkHjGekW+KiuSeLEJaTWG7dIo5CsArTBelrGRSayWZSlN4Ed2kr1Sn7tS8v3LMFz7dJ+XwSl6Em+yJnhYAPCwazad/cprqgd3PjI+9Mg6/aEeX4gWWwYHYOtqKkoHufve++S617xavzsM9UNBLskFxRdzb0Y+TszccGfw9ft8No/h3S3n9J0jzx99Qfbi9eBxHBBM4oXyOL7Mk8CTBoHUpw3Mu2DWjkrhw6Gbu/GhEoCip/LUujIJ7+IBaLGMVRKAYbWv1pNSAXAy5zzJzsZX/zGVZPI9ks514ZC0Q4+pYvqoxv0eO4yeF9mAhBapXx04dEi++7171BO1syL1zUn6cXNZJE8wcOA4XpDb7/h3+eLnP6tD03sMCelvwFjnQz41kJ6lXGT43GxPLRlpx8lKJ96J7u2aJeePn4f3Y47LiydflCN433C8OI7n4Al9TNNvKLED8JfDqxZDOHQdh0xdJ+idAJKbewUtBW/rXiipnnOwKe7DgUS7A60TwzUP4HIYHBiumE7i/DINR4oOW4I31W6OAJ7C3/5vX5BTwyM277ego4XGj28aWKbV3RrgnY9Vm5/eJl/6j6/Jxz5yK85O4CGRiZWgYfbTpnhaYwDaVof7Ra7UaQznHIzqhHcU2selr6tPzhlYDPDGZHj8FF4OOiUjxRG8vImVGx+OV/AODj6slPFqBvMZDAcAksIX/3hqksPpCYZlG65MBj84gWmCpykpPFWk8FjGoRrn0wUufkaij2kBeFOBo/UEj4+tX/36f8mGTZvVQwPvo4dME2YA0HEYOsjE5Mc//Rkm4ITcesv7dWhSrnmc9YfeoV8SIFZRoV6onoghiuGcxjDK4Rk6n2uXrnJJSpMTOHn2F0DD1yf4BlgMQxcSpCuBd16gYQqdleRxFjw6ziMtAgNZCchKJAEeFwas+jxRUcAIGnSI43hK37rXKYanhj6EKZZwzmW7d33t6/KDH92vI8qGuKebDkE4zUVXXNWi1jP6Bq2HeD7Hnlq9aqV84raPyZLFi/CoZwuL+h/ZIM0E2qdq7FW+tFjFe3eVaiW8UFbBECV/pYKvKGgd3vFDjDEKL8fKiyU5BxBTAIDTAb05ho7gwWecMYBKECSk9eKBAMu5wpKW8xyGLDvWOjq0S5cq2MLdwov7D+gUteFJfl0XHc95OAI3LbLnaRQ3hRYAho000bp5CCBiDsrnc/KOt94s17/uWpk7Zw4OO6FoBDzohqwV6NsFfMMAwDBNsBiz17nf4utujFlm7+fV9KgKhzGShi2M+fjIIWULFjzRDUkCZGeKAI9gAWiNSa8gEDxnE2JN4cZfKDp69Bh+fGyN3PPDH+tjKwH3c3Cz7TrTm2c0VDUB6BpqIPEZq6MH6jvEFIY0f/5uKTzxNfiBhlWXrMTX5OdgrsOmGYDSWA5jGqBgOlEKKDxMASV4BJcXl3zI5AuZPGTFmgRPNAApQ81XgKiL8y7Ih9WaN6BCG6iijQC814iDgYmJkhw7flw2b9kqv1n3qOx8/gUAN2YAQz4PZQkibYwGZ7k6SLSc6bMG0AtgG3bkbpMvy5lvB6BdXfiUCz/AyF9G454qPHbyqthRs4HKDlFuFc0yDwFjQqMFziYFUQmiVEj7bMR2AkHgeCxXKBbxS0Qj2NcSMJVq3kbxCpwXwAYbQ1hDoxvrIotISNZIwly0ztLoMB06NJ5zE72Sw6eAXi7iZW1FhZ4HAvVAjam4UyIq0mnldfNVjNlOEDwBC1zaokYi36Y2RQUphDEC507rBHobL5Y38ivhdDeSmiilcABGBTRzzlznDeS8o7oG8q0VG1a0wXpdlaXIqCKuieaWInqqVD7B8elHWSOzOkvUm5WBoNAGZAiQtxady8AqrfaKa66xJSU8wxsAVHHTkDfXNeejbF5xVxYoyPw0fC2LpzOGYDhRxKZJpuZbyXOeR9YzCxQyvQ7WMSGJd4szkN1KO8/2Uus8fzSmrJnknb46Ks25Y0PR1Mxp2pvKEKg4A4BRodF0s7SZ6lrRkv5MeE5DdyYifPM6Gs6KwXO2iBvl/B8fCtdsjYRP8wAAAABJRU5ErkJggg==;" parent="1" vertex="1">
          <mxGeometry x="50" y="335" width="42.11" height="40" as="geometry" />
        </mxCell>
        <mxCell id="QDqE9SO4e1qeKLdeWHyi-3" value="" style="group" vertex="1" connectable="0" parent="1">
          <mxGeometry x="570" y="740" width="960" height="120" as="geometry" />
        </mxCell>
        <mxCell id="3qXbmZX9D_YXO-NYl6an-32" value="live.live.dao-anchor" style="rounded=1;whiteSpace=wrap;html=1;" parent="QDqE9SO4e1qeKLdeWHyi-3" vertex="1">
          <mxGeometry x="840" y="30" width="120" height="60" as="geometry" />
        </mxCell>
        <mxCell id="3qXbmZX9D_YXO-NYl6an-33" value="&lt;span style=&quot;font-family: ui-sans-serif, system-ui, sans-serif, &amp;quot;Apple Color Emoji&amp;quot;, &amp;quot;Segoe UI Emoji&amp;quot;, &amp;quot;Segoe UI Symbol&amp;quot;, &amp;quot;Noto Color Emoji&amp;quot;; font-size: 14px; font-style: normal; font-variant-ligatures: normal; font-variant-caps: normal; font-weight: 400; letter-spacing: normal; orphans: 2; text-align: left; text-indent: 0px; text-transform: none; widows: 2; word-spacing: 0px; -webkit-text-stroke-width: 0px; white-space: normal; text-decoration-thickness: initial; text-decoration-style: initial; text-decoration-color: initial; float: none; display: inline !important;&quot;&gt;&lt;font style=&quot;color: light-dark(rgb(255, 255, 255), rgb(255, 255, 255));&quot;&gt;/live.daoanchor.v1.DaoAnchor/FetchRoomByIDs&lt;/font&gt;&lt;/span&gt;" style="text;whiteSpace=wrap;html=1;" parent="QDqE9SO4e1qeKLdeWHyi-3" vertex="1">
          <mxGeometry x="440" y="20" width="340" height="40" as="geometry" />
        </mxCell>
        <mxCell id="3qXbmZX9D_YXO-NYl6an-37" style="edgeStyle=orthogonalEdgeStyle;rounded=0;orthogonalLoop=1;jettySize=auto;html=1;entryX=0;entryY=0.5;entryDx=0;entryDy=0;" parent="QDqE9SO4e1qeKLdeWHyi-3" source="3qXbmZX9D_YXO-NYl6an-40" target="3qXbmZX9D_YXO-NYl6an-32" edge="1">
          <mxGeometry relative="1" as="geometry">
            <Array as="points">
              <mxPoint x="840" y="60" />
            </Array>
          </mxGeometry>
        </mxCell>
        <mxCell id="3qXbmZX9D_YXO-NYl6an-40" value="live.live.xroom" style="rounded=1;whiteSpace=wrap;html=1;" parent="QDqE9SO4e1qeKLdeWHyi-3" vertex="1">
          <mxGeometry x="250" y="30" width="120" height="60" as="geometry" />
        </mxCell>
        <mxCell id="3qXbmZX9D_YXO-NYl6an-57" value="热门房间本地缓存" style="shape=process;whiteSpace=wrap;html=1;backgroundOutline=1;" parent="QDqE9SO4e1qeKLdeWHyi-3" vertex="1">
          <mxGeometry x="245" width="130" height="30" as="geometry" />
        </mxCell>
        <UserObject label="&lt;span style=&quot;font-family: ui-sans-serif, system-ui, sans-serif, &amp;quot;Apple Color Emoji&amp;quot;, &amp;quot;Segoe UI Emoji&amp;quot;, &amp;quot;Segoe UI Symbol&amp;quot;, &amp;quot;Noto Color Emoji&amp;quot;; font-size: 14px; font-style: normal; font-variant-ligatures: normal; font-variant-caps: normal; font-weight: 400; letter-spacing: normal; orphans: 2; text-align: left; text-indent: 0px; text-transform: none; widows: 2; word-spacing: 0px; -webkit-text-stroke-width: 0px; white-space: normal; text-decoration-thickness: initial; text-decoration-style: initial; text-decoration-color: initial; float: none; display: inline !important;&quot;&gt;&lt;font style=&quot;color: light-dark(rgb(255, 255, 255), rgb(255, 255, 255));&quot;&gt;/live.xroom.v1.Room/GetMultiple&lt;/font&gt;&lt;/span&gt;" link="&lt;span style=&quot;color: rgb(96, 98, 102); font-family: ui-sans-serif, system-ui, sans-serif, &amp;quot;Apple Color Emoji&amp;quot;, &amp;quot;Segoe UI Emoji&amp;quot;, &amp;quot;Segoe UI Symbol&amp;quot;, &amp;quot;Noto Color Emoji&amp;quot;; font-size: 14px; font-style: normal; font-variant-ligatures: normal; font-variant-caps: normal; font-weight: 400; letter-spacing: normal; orphans: 2; text-align: left; text-indent: 0px; text-transform: none; widows: 2; word-spacing: 0px; -webkit-text-stroke-width: 0px; white-space: normal; background-color: rgb(236, 245, 255); text-decoration-thickness: initial; text-decoration-style: initial; text-decoration-color: initial; display: inline !important; float: none;&quot;&gt;/live.xroom.v1.Room/GetMultiple&lt;/span&gt;" id="3qXbmZX9D_YXO-NYl6an-77">
          <mxCell style="text;whiteSpace=wrap;html=1;" parent="QDqE9SO4e1qeKLdeWHyi-3" vertex="1">
            <mxGeometry y="20" width="230" height="40" as="geometry" />
          </mxCell>
        </UserObject>
        <mxCell id="3qXbmZX9D_YXO-NYl6an-78" value="全量在播房间缓存" style="shape=process;whiteSpace=wrap;html=1;backgroundOutline=1;" parent="QDqE9SO4e1qeKLdeWHyi-3" vertex="1">
          <mxGeometry x="245" y="90" width="130" height="30" as="geometry" />
        </mxCell>
      </root>
    </mxGraphModel>
  </diagram>
</mxfile>
